<svg xmlns="http://www.w3.org/2000/svg" width="15.44" height="15.46" viewBox="0 0 15.44 15.46">
  <defs>
    <style>
      .cls-1 {
        fill: none;
        stroke: #a3a3a4;
        stroke-width: 1px;
        fill-rule: evenodd;
      }
    </style>
  </defs>
  <path id="Vector" class="cls-1" d="M1106.92,5788.2v2.18a1.446,1.446,0,0,1-.47,1.08,1.463,1.463,0,0,1-.51.3,1.377,1.377,0,0,1-.6.07,14.545,14.545,0,0,1-12.85-12.87,1.734,1.734,0,0,1,.07-0.6,1.488,1.488,0,0,1,.31-0.51,1.384,1.384,0,0,1,.48-0.35,1.739,1.739,0,0,1,.59-0.13h2.18a1.485,1.485,0,0,1,.96.36,1.468,1.468,0,0,1,.49.89,9.5,9.5,0,0,0,.5,2.04,1.53,1.53,0,0,1,.07.82,1.463,1.463,0,0,1-.39.71l-0.92.93a11.571,11.571,0,0,0,4.35,4.35l0.92-.92a1.458,1.458,0,0,1,.72-0.39,1.484,1.484,0,0,1,.81.06,9.1,9.1,0,0,0,2.04.51,1.455,1.455,0,0,1,.91.5A1.44,1.44,0,0,1,1106.92,5788.2Z" transform="translate(-1092 -5776.88)"/>
</svg>
