<svg id="Component_5_1" data-name="Component 5 – 1" xmlns="http://www.w3.org/2000/svg" width="483.685" height="1109.645" viewBox="0 0 483.685 1109.645">
  <g id="Component_1_1" data-name="Component 1 – 1" transform="translate(20.557 27.165)">
    <path id="Path_34" data-name="Path 34" d="M-19594.006,1262.761l-98.609,215.308,125.178,182.423-194.5,166.205,287.627,199.583-216.328,168.784-224.8,129.734" transform="translate(19915.443 -1262.761)" fill="none" stroke="#7f7e7e" stroke-width="1" stroke-dasharray="20 10"/>
  </g>
  <g id="dot" transform="translate(-941.77 -5289.5)">
    <circle id="Ellipse_7" data-name="Ellipse 7" cx="27.405" cy="27.405" r="27.405" transform="translate(1255.77 5289.5)" fill="#fff" opacity="0.349"/>
    <circle id="Ellipse_8" data-name="Ellipse 8" cx="13.702" cy="13.702" r="13.702" transform="translate(1269.472 5303.202)" fill="#4baad0"/>
  </g>
  <g id="dot-2" data-name="dot" transform="translate(-1033.52 -5069.333)">
    <circle id="Ellipse_7-2" data-name="Ellipse 7" cx="21.28" cy="21.28" r="21.28" transform="translate(1255.77 5289.5)" fill="#fff" opacity="0.349"/>
    <circle id="Ellipse_8-2" data-name="Ellipse 8" cx="10.64" cy="10.64" r="10.64" transform="translate(1266.41 5300.14)" fill="#6cb394"/>
  </g>
  <g id="dot-3" data-name="dot" transform="translate(-908.645 -4886.166)">
    <circle id="Ellipse_7-3" data-name="Ellipse 7" cx="21.28" cy="21.28" r="21.28" transform="translate(1255.77 5289.5)" fill="#fff" opacity="0.349"/>
    <circle id="Ellipse_8-3" data-name="Ellipse 8" cx="10.64" cy="10.64" r="10.64" transform="translate(1266.41 5300.14)" fill="#6cb394"/>
  </g>
  <g id="dot-4" data-name="dot" transform="translate(-1102.895 -4720.16)">
    <circle id="Ellipse_7-4" data-name="Ellipse 7" cx="21.28" cy="21.28" r="21.28" transform="translate(1255.77 5289.5)" fill="#fff" opacity="0.349"/>
    <circle id="Ellipse_8-4" data-name="Ellipse 8" cx="10.64" cy="10.64" r="10.64" transform="translate(1266.41 5300.14)" fill="#fff"/>
  </g>
  <g id="dot-5" data-name="dot" transform="translate(-814.645 -4520.154)">
    <circle id="Ellipse_7-5" data-name="Ellipse 7" cx="21.28" cy="21.28" r="21.28" transform="translate(1255.77 5289.5)" fill="#fff" opacity="0.349"/>
    <circle id="Ellipse_8-5" data-name="Ellipse 8" cx="10.64" cy="10.64" r="10.64" transform="translate(1266.41 5300.14)" fill="#fff"/>
  </g>
  <g id="dot-6" data-name="dot" transform="translate(-1031.52 -4351.654)">
    <circle id="Ellipse_7-6" data-name="Ellipse 7" cx="21.28" cy="21.28" r="21.28" transform="translate(1255.77 5289.5)" fill="#fff" opacity="0.349"/>
    <circle id="Ellipse_8-6" data-name="Ellipse 8" cx="10.64" cy="10.64" r="10.64" transform="translate(1266.41 5300.14)" fill="#fff"/>
  </g>
  <g id="dot-7" data-name="dot" transform="translate(-1255.77 -4222.415)">
    <circle id="Ellipse_7-7" data-name="Ellipse 7" cx="21.28" cy="21.28" r="21.28" transform="translate(1255.77 5289.5)" fill="#fff" opacity="0.349"/>
    <circle id="Ellipse_8-7" data-name="Ellipse 8" cx="10.64" cy="10.64" r="10.64" transform="translate(1266.41 5300.14)" fill="#fff"/>
  </g>
</svg>
