<svg xmlns="http://www.w3.org/2000/svg" width="13.88" height="17" viewBox="0 0 13.88 17">
  <defs>
    <style>
      .cls-1 {
        fill: none;
        stroke: #a3a3a4;
        stroke-width: 1px;
        fill-rule: evenodd;
      }
    </style>
  </defs>
  <path id="Vector" class="cls-1" d="M1098.73,5690.16s-6.43-3.61-6.43-9.48a6.3,6.3,0,0,1,.44-2.51,6.351,6.351,0,0,1,3.49-3.58,6.382,6.382,0,0,1,5,0,6.422,6.422,0,0,1,2.1,1.43,6.626,6.626,0,0,1,1.39,2.15,6.484,6.484,0,0,1,.44,2.51C1105.16,5686.55,1098.73,5690.16,1098.73,5690.16Z" transform="translate(-1091.78 -5673.59)"/>
  <path id="Vector-2" data-name="Vector" class="cls-1" d="M1101.14,5680.52a2.41,2.41,0,1,1-2.41-2.42A2.411,2.411,0,0,1,1101.14,5680.52Z" transform="translate(-1091.78 -5673.59)"/>
</svg>
