<svg xmlns="http://www.w3.org/2000/svg" width="23.87" height="20.44" viewBox="0 0 23.87 20.44">
  <defs>
    <style>
      .cls-1 {
        fill: #fff;
        fill-rule: evenodd;
      }
    </style>
  </defs>
  <path id="Vector" class="cls-1" d="M3546.36,1636.43c0-.22-0.01-0.45-0.02-0.66a10.236,10.236,0,0,0,2.45-2.63,9.284,9.284,0,0,1-2.82.77,5.058,5.058,0,0,0,2.16-2.81,9.714,9.714,0,0,1-3.11,1.2,4.821,4.821,0,0,0-8.48,3.41,5.082,5.082,0,0,0,.13,1.18,13.82,13.82,0,0,1-10.11-5.57,5.446,5.446,0,0,0-.66,2.62,5.369,5.369,0,0,0,2.18,4.37,4.7,4.7,0,0,1-2.22-.68v0.07a5.206,5.206,0,0,0,3.93,5.15,4.958,4.958,0,0,1-1.29.17,3.992,3.992,0,0,1-.92-0.1,4.966,4.966,0,0,0,4.58,3.64,9.464,9.464,0,0,1-6.09,2.21,8.969,8.969,0,0,1-1.17-.07,13.289,13.289,0,0,0,7.51,2.35C3541.43,1651.05,3546.36,1643.22,3546.36,1636.43Z" transform="translate(-3524.91 -1630.62)"/>
</svg>
